<svg xmlns="http://www.w3.org/2000/svg" xml:space="preserve" style="fill-rule:evenodd;clip-rule:evenodd;stroke-linejoin:round;stroke-miterlimit:2" viewBox="0 0 1372 182"><path d="M.094 0v-.7h.13v.59H.59V0z" style="fill:#4a708b;fill-rule:nonzero" transform="translate(799.398 178.354)scale(240.36901)"/><path d="M.411 0v-.108L.404-.131V-.32q0-.055-.033-.085t-.1-.031a.3.3 0 0 0-.088.014.2.2 0 0 0-.074.039L.06-.474a.3.3 0 0 1 .103-.05.5.5 0 0 1 .123-.016q.115 0 .18.055.063.055.063.172V0zM.243.007a.3.3 0 0 1-.105-.021.15.15 0 0 1-.07-.057.14.14 0 0 1-.024-.082.15.15 0 0 1 .022-.081.14.14 0 0 1 .07-.057.3.3 0 0 1 .13-.021h.155v.083H.275q-.064 0-.086.021a.06.06 0 0 0-.022.05q0 .035.027.054.027.02.075.02a.2.2 0 0 0 .083-.021.1.1 0 0 0 .052-.062l.021.075a.13.13 0 0 1-.064.073.24.24 0 0 1-.118.026" style="fill:#4a708b;fill-rule:nonzero" transform="translate(943.55 178.354)scale(240.36901)"/><path d="M.378.007a.24.24 0 0 1-.121-.03.2.2 0 0 1-.083-.09.34.34 0 0 1-.031-.154q0-.094.032-.154a.2.2 0 0 1 .084-.09.24.24 0 0 1 .119-.029q.08 0 .139.034a.24.24 0 0 1 .096.095.3.3 0 0 1 .036.144.3.3 0 0 1-.036.144.24.24 0 0 1-.096.095.3.3 0 0 1-.139.035M.082 0v-.742h.125v.332l-.01.142.004.142V0zm.282-.1a.15.15 0 0 0 .137-.078.2.2 0 0 0 .021-.089.2.2 0 0 0-.021-.089.15.15 0 0 0-.137-.078.15.15 0 0 0-.138.078.2.2 0 0 0-.021.089q0 .05.021.089A.15.15 0 0 0 .364-.1" style="fill:#4a708b;fill-rule:nonzero" transform="translate(1089.403 178.354)scale(240.36901)"/><path d="M.247.007a.46.46 0 0 1-.226-.06l.048-.095a.35.35 0 0 0 .186.053.2.2 0 0 0 .086-.016.05.05 0 0 0 .026-.043.04.04 0 0 0-.018-.034.2.2 0 0 0-.047-.017L.237-.216a.6.6 0 0 1-.135-.038.14.14 0 0 1-.047-.045.14.14 0 0 1-.018-.074q0-.05.029-.088A.2.2 0 0 1 .147-.52a.3.3 0 0 1 .125-.02q.054 0 .109.012a.3.3 0 0 1 .091.034l-.048.095A.2.2 0 0 0 .348-.43a.3.3 0 0 0-.077-.009.2.2 0 0 0-.084.017q-.028.017-.028.043a.04.04 0 0 0 .018.036.2.2 0 0 0 .047.019l.065.012.07.013a.3.3 0 0 1 .065.025.13.13 0 0 1 .047.043.13.13 0 0 1 .018.073q0 .051-.03.087a.2.2 0 0 1-.083.057.4.4 0 0 1-.129.021" style="fill:#4a708b;fill-rule:nonzero" transform="translate(1254.312 178.354)scale(240.36901)"/><path d="m-.014 0 .309-.7H.49L.8 0H.594L.352-.603H.43L.188 0zm.169-.136.051-.146h.342l.051.146z" style="fill:#036;fill-rule:nonzero" transform="translate(3.373 178.211)scale(240.36901)"/><path d="M.419.014a.4.4 0 0 1-.153-.027.35.35 0 0 1-.203-.19.4.4 0 0 1-.029-.147q0-.08.029-.147a.34.34 0 0 1 .203-.19.4.4 0 0 1 .153-.027q.097 0 .173.034a.3.3 0 0 1 .128.098l-.126.114A.2.2 0 0 0 .52-.529.2.2 0 0 0 .429-.55a.2.2 0 0 0-.079.014.2.2 0 0 0-.061.04.2.2 0 0 0-.041.064.24.24 0 0 0 0 .164q.015.037.041.064a.2.2 0 0 0 .061.04q.036.015.079.014A.2.2 0 0 0 .52-.171a.2.2 0 0 0 .074-.061l.126.114a.35.35 0 0 1-.128.098.4.4 0 0 1-.173.034" style="fill:#036;fill-rule:nonzero" transform="translate(189.783 178.211)scale(240.36901)"/><path d="m-.014 0 .309-.7H.49L.8 0H.594L.352-.603H.43L.188 0zm.169-.136.051-.146h.342l.051.146z" style="fill:#036;fill-rule:nonzero" transform="translate(362.41 178.211)scale(240.36901)"/><path d="M.07 0v-.7h.313q.153 0 .236.069.082.07.082.19a.24.24 0 0 1-.038.137.25.25 0 0 1-.107.088.4.4 0 0 1-.166.03H.18l.088-.083V0zm.433 0L.329-.255H.54L.715 0zM.268-.248.18-.339h.198q.062 0 .093-.027a.1.1 0 0 0 .03-.075.1.1 0 0 0-.03-.076Q.439-.544.378-.544H.18l.088-.091z" style="fill:#036;fill-rule:nonzero" transform="translate(551.224 178.211)scale(240.36901)"/></svg>