<svg xmlns="http://www.w3.org/2000/svg" xml:space="preserve" style="fill-rule:evenodd;clip-rule:evenodd;stroke-linecap:round;stroke-linejoin:round;stroke-miterlimit:1.5" viewBox="0 0 10667 6000"><g id="Logo-Completo"><path d="M.094 0v-.7h.13v.59H.59V0z" style="fill:#4a708b;fill-rule:nonzero" transform="translate(5806.302 5166.238)scale(1001.53756)"/><path d="M.411 0v-.108L.405-.131V-.32q0-.055-.033-.085-.034-.03-.1-.031a.3.3 0 0 0-.088.014.2.2 0 0 0-.074.038L.061-.475a.3.3 0 0 1 .102-.049.5.5 0 0 1 .124-.017q.116 0 .179.056.064.055.064.172V0zM.244.007a.3.3 0 0 1-.106-.02.16.16 0 0 1-.069-.057.15.15 0 0 1-.024-.082.15.15 0 0 1 .022-.081.15.15 0 0 1 .071-.057.3.3 0 0 1 .13-.021h.155v.083H.277q-.064 0-.086.021a.07.07 0 0 0-.022.051q0 .034.027.054t.075.02a.16.16 0 0 0 .083-.021.1.1 0 0 0 .052-.062l.021.075a.14.14 0 0 1-.065.073.24.24 0 0 1-.117.026Z" style="fill:#4a708b;fill-rule:nonzero" transform="translate(6406.94 5166.238)scale(1001.53756)"/><path d="M.378.007a.24.24 0 0 1-.121-.03.2.2 0 0 1-.083-.09.35.35 0 0 1-.03-.154q0-.094.031-.154a.2.2 0 0 1 .085-.09.28.28 0 0 1 .258.004.24.24 0 0 1 .096.095.3.3 0 0 1 .035.144.3.3 0 0 1-.035.144.24.24 0 0 1-.096.095.3.3 0 0 1-.139.034ZM.082 0v-.742h.125v.332l-.01.142.004.142V0zm.281-.1q.045 0 .081-.02a.15.15 0 0 0 .057-.058.2.2 0 0 0 .021-.089.2.2 0 0 0-.021-.089.15.15 0 0 0-.138-.078.15.15 0 0 0-.138.078.2.2 0 0 0-.021.089q0 .05.021.089a.14.14 0 0 0 .057.058q.036.02.081.02" style="fill:#4a708b;fill-rule:nonzero" transform="translate(7014.657 5166.238)scale(1001.53756)"/><path d="M.247.007A.5.5 0 0 1 .118-.01a.3.3 0 0 1-.097-.042l.048-.095a.35.35 0 0 0 .186.053.2.2 0 0 0 .086-.016.05.05 0 0 0 .026-.043.04.04 0 0 0-.018-.033.1.1 0 0 0-.047-.018L.237-.215Q.202-.22.166-.228a.3.3 0 0 1-.065-.025.13.13 0 0 1-.047-.045.14.14 0 0 1-.018-.074q0-.05.029-.088a.2.2 0 0 1 .081-.058.3.3 0 0 1 .124-.021q.054 0 .109.012a.3.3 0 0 1 .091.034l-.048.095A.3.3 0 0 0 .27-.439a.2.2 0 0 0-.085.017q-.027.017-.028.043 0 .024.018.035a.2.2 0 0 0 .047.019l.065.012a.6.6 0 0 1 .135.038q.03.016.047.044a.13.13 0 0 1 .018.073.14.14 0 0 1-.029.087.2.2 0 0 1-.083.057.4.4 0 0 1-.129.02Z" style="fill:#4a708b;fill-rule:nonzero" transform="translate(7701.78 5166.238)scale(1001.53756)"/><g id="Logo"><path d="m5219.333 992.558 848.142 845.929c230.431 229.83 230.919 603.503 1.089 833.934l-832.845 835.023c-229.83 230.431-603.503 230.919-833.934 1.089l-848.142-845.929c-230.431-229.83-230.919-603.503-1.089-833.934l832.845-835.023c229.83-230.431 603.503-230.919 833.934-1.089" style="fill:#ebebeb;fill-opacity:0"/><clipPath id="_clip1"><path d="m5219.333 992.558 848.142 845.929c230.431 229.83 230.919 603.503 1.089 833.934l-832.845 835.023c-229.83 230.431-603.503 230.919-833.934 1.089l-848.142-845.929c-230.431-229.83-230.919-603.503-1.089-833.934l832.845-835.023c229.83-230.431 603.503-230.919 833.934-1.089"/></clipPath><g clip-path="url(#_clip1)"><path d="m6084.762 2424.381-3.415 463.261-504.604 3.72 3.415-463.261zm-14.796-798.144-3.263 442.579-483.923 3.567 3.263-442.579z" style="fill:#036"/></g><path d="m5219.333 992.558 848.142 845.929c230.431 229.83 230.919 603.503 1.089 833.934l-832.845 835.023c-229.83 230.431-603.503 230.919-833.934 1.089l-848.142-845.929c-230.431-229.83-230.919-603.503-1.089-833.934l832.845-835.023c229.83-230.431 603.503-230.919 833.934-1.089" style="fill:none;stroke:#036;stroke-width:395.83px"/><path d="m6413.252 994.011 846.166 843.958c231.41 230.806 231.9 606.067 1.094 837.477l-836.383 838.571c-230.806 231.41-606.067 231.9-837.477 1.094l-846.166-843.958c-231.41-230.806-231.9-606.067-1.094-837.477l836.383-838.571c230.806-231.41 606.067-231.9 837.477-1.094" style="fill:#ebebeb;fill-opacity:0"/><clipPath id="_clip2"><path d="m6413.252 994.011 846.166 843.958c231.41 230.806 231.9 606.067 1.094 837.477l-836.383 838.571c-230.806 231.41-606.067 231.9-837.477 1.094l-846.166-843.958c-231.41-230.806-231.9-606.067-1.094-837.477l836.383-838.571c230.806-231.41 606.067-231.9 837.477-1.094"/></clipPath><g clip-path="url(#_clip2)"><path d="M4616.373 2460.099h595.833v462.5h-595.833zm12.5-858.333h595.833v475h-595.833z" style="fill:#4a708b"/></g><path d="m6413.252 994.011 846.166 843.958c231.41 230.806 231.9 606.067 1.094 837.477l-836.383 838.571c-230.806 231.41-606.067 231.9-837.477 1.094l-846.166-843.958c-231.41-230.806-231.9-606.067-1.094-837.477l836.383-838.571c230.806-231.41 606.067-231.9 837.477-1.094" style="fill:none;stroke:#4a708b;stroke-width:395.83px"/><path d="m5721.673 1215.207-279.22 279.001-368.098-368.387 279.22-279.001z" style="fill:#036"/></g><path d="m-.014 0 .309-.7H.49l.309.7H.593L.351-.603h.078L.187 0h-.202Zm.169-.136.051-.146h.342l.051.146z" style="fill:#036;fill-rule:nonzero" transform="translate(2489.531 5165.646)scale(1001.53756)"/><path d="M.419.014a.4.4 0 0 1-.153-.027.355.355 0 0 1-.231-.337q0-.08.029-.147a.35.35 0 0 1 .203-.19.4.4 0 0 1 .153-.026q.097 0 .173.034a.3.3 0 0 1 .127.098l-.126.114A.2.2 0 0 0 .52-.528a.22.22 0 0 0-.17-.007.18.18 0 0 0-.101.105.24.24 0 0 0 0 .164q.015.037.04.064a.18.18 0 0 0 .14.055.2.2 0 0 0 .091-.021.3.3 0 0 0 .074-.061l.126.114a.34.34 0 0 1-.127.098.4.4 0 0 1-.174.034Z" style="fill:#036;fill-rule:nonzero" transform="translate(3266.243 5165.646)scale(1001.53756)"/><path d="m-.014 0 .309-.7H.49l.309.7H.593L.351-.603h.078L.187 0h-.202Zm.169-.136.051-.146h.342l.051.146z" style="fill:#036;fill-rule:nonzero" transform="translate(3985.52 5165.646)scale(1001.53756)"/><path d="M.07 0v-.7h.312q.153 0 .236.069A.23.23 0 0 1 .7-.442a.25.25 0 0 1-.038.137.24.24 0 0 1-.108.088.4.4 0 0 1-.166.031H.179l.088-.083V0H.069Zm.433 0L.329-.255H.54L.716 0H.504ZM.268-.248.18-.339h.198q.062 0 .093-.027a.1.1 0 0 0 .031-.075.1.1 0 0 0-.031-.075Q.441-.543.378-.543H.18l.088-.091v.388Z" style="fill:#036;fill-rule:nonzero" transform="translate(4772.247 5165.646)scale(1001.53756)"/></g></svg>