<svg xmlns="http://www.w3.org/2000/svg" xml:space="preserve" style="fill-rule:evenodd;clip-rule:evenodd;stroke-linecap:round;stroke-linejoin:round;stroke-miterlimit:1.5" viewBox="0 0 1068 784"><g transform="translate(-763.82 -149.421)"><g id="Logo"><g transform="matrix(.5599 -.56136 .73581 .73389 23.882 756.183)"><path d="M1557 485.18v276.64c0 75.16-79.983 136.18-178.5 136.18h-357C922.983 898 843 836.98 843 761.82V485.18C843 410.02 922.983 349 1021.5 349h357c98.517 0 178.5 61.02 178.5 136.18" style="fill:#ebebeb;fill-opacity:0"/><clipPath id="_clip1"><path d="M1557 485.18v276.64c0 75.16-79.983 136.18-178.5 136.18h-357C922.983 898 843 836.98 843 761.82V485.18C843 410.02 922.983 349 1021.5 349h357c98.517 0 178.5 61.02 178.5 136.18"/></clipPath><g clip-path="url(#_clip1)"><path d="M768 476h117v107H768z" style="fill:#fff" transform="matrix(.92875 .70002 -.93475 .70086 1058.117 -92.93)"/><path d="M768 476h117v107H768z" style="fill:#fff" transform="matrix(.8907 .67133 -.89302 .66958 1239.84 -185.23)"/></g><path d="M1557 485.18v276.64c0 75.16-79.983 136.18-178.5 136.18h-357C922.983 898 843 836.98 843 761.82V485.18C843 410.02 922.983 349 1021.5 349h357c98.517 0 178.5 61.02 178.5 136.18" style="fill:none;stroke:#fff;stroke-width:102.78px"/></g><g transform="rotate(-45.075 1068.23 11.032)scale(.79622 1.0402)"><path d="M1557 485.631v275.738C1557 836.778 1477.017 898 1378.5 898h-357C922.983 898 843 836.778 843 761.369V485.631C843 410.222 922.983 349 1021.5 349h357c98.517 0 178.5 61.222 178.5 136.631" style="fill:#ebebeb;fill-opacity:0"/><clipPath id="_clip2"><path d="M1557 485.631v275.738C1557 836.778 1477.017 898 1378.5 898h-357C922.983 898 843 836.778 843 761.369V485.631C843 410.222 922.983 349 1021.5 349h357c98.517 0 178.5 61.222 178.5 136.631"/></clipPath><g clip-path="url(#_clip2)"><path d="M1366 324h106v61h-106z" style="fill:#a7c7e7" transform="matrix(1.1965 .91825 -1.61813 1.23535 -248.534 -1223.62)"/><path d="M1366 324h106v61h-106z" style="fill:#a7c7e7" transform="matrix(1.1965 .91825 -1.66186 1.26874 -48.52 -1372.246)"/></g><path d="M1557 485.631v275.738C1557 836.778 1477.017 898 1378.5 898h-357C922.983 898 843 836.778 843 761.369V485.631C843 410.222 922.983 349 1021.5 349h357c98.517 0 178.5 61.222 178.5 136.631" style="fill:none;stroke:#a7c7e7;stroke-width:102.56px"/></g><path d="M1315 165h125v103h-125z" style="fill:#fff" transform="matrix(.70675 .7073 -.6506 .6501 462.828 -834.125)"/></g></g></svg>